<svg id="Layer_1" enable-background="new 0 0 512 512" height="512" viewBox="0 0 512 512" width="512" xmlns="http://www.w3.org/2000/svg"><g><path d="m245.002 16.497c-135.311 0-245.002 109.691-245.002 245.002 0 24.648 3.655 48.44 10.427 70.879l119.642 145.528c34.278 18.243 73.394 28.595 114.933 28.595 135.311 0 245.002-109.691 245.002-245.002 0-135.311-109.691-245.002-245.002-245.002z" fill="#816ae2"/><path d="m420.599 109.912c.138 7.562-.609 15.306-1.417 20.469-3.816 16.817-9.324 31.459-16.371 43.518-3.195 5.468-7.181 10.438-11.848 14.773l-.598.555v3.767c0 3.904 1.517 7.515 4.1 10.839 14.459-.874 26.752-3.803 36.441-7.139 11.663-4.016 16.769-17.843 10.396-28.405-15.005-24.871-12.769-58.376-12.769-58.376h-7.934z" fill="#2a428c"/><path d="m441.302 168.288c-1.408-2.333-2.663-4.742-3.784-7.193-17.463 10.13-24.442-4.223-24.442-4.223s-.451-.662-1.278-1.892c-2.639 6.859-5.637 13.184-8.988 18.919-3.195 5.468-7.181 10.438-11.848 14.773l-.598.555v3.767c0 3.904 1.517 7.515 4.1 10.839 14.459-.874 26.752-3.803 36.441-7.139 11.664-4.017 16.77-17.844 10.397-28.406z" fill="#1c2e7a"/><path d="m294.322 196.693c9.689 3.336 21.982 6.265 36.441 7.139 2.583-3.325 4.101-6.935 4.101-10.839v-4.626l-.572-.552c-4.271-4.123-7.952-8.805-10.938-13.916-7.051-12.067-12.557-26.704-16.367-43.501-.834-4.87-1.589-12.742-1.421-20.486h-8.87s2.236 33.506-12.769 58.376c-6.374 10.562-1.268 24.389 10.395 28.405z" fill="#1c2e7a"/><path d="m303.526 222.202c10.466 17.911 26.315 31.84 45.834 40.285 8.742 3.781 18.767 3.781 27.508 0 19.519-8.445 35.368-22.375 45.834-40.285.399-.683.789-1.381 1.181-2.077-16.411-6.328-31.633-15.329-31.633-27.095 0-4.117 0-2.884 0-5.55-7.179 6.418-19.489 14.594-29.628 14.84-10.139-.245-22.45-8.422-29.628-14.84 0 7.654 2.032 16.866-22.025 28.547-2.777 1.348-5.744 2.617-8.789 3.807.445.793.891 1.589 1.346 2.368z" fill="#fcad6d"/><path d="m332.993 187.481c0 7.654 2.032 16.867-22.025 28.547-2.777 1.348-5.744 2.617-8.789 3.807.446.793.892 1.589 1.346 2.368 7.509 12.85 17.8 23.636 30.218 31.832 19.695-14.961 25.964-38.067 27.954-51.779-9.954-.692-21.74-8.55-28.704-14.775z" fill="#fd995b"/><path d="m508.969 280.803c-1.678-7.675-3.837-14.419-6.559-19.862-10.887-21.775-29.997-27.856-38.703-29.528-2.244-.604-23.559-4.655-42.331-12.279-.544.977-1.092 1.946-1.65 2.9-9.948 17.024-25.012 30.264-43.565 38.291-8.308 3.594-17.837 3.594-26.146 0-18.553-8.027-33.617-21.267-43.565-38.291-.613-1.049-1.217-2.111-1.813-3.188-19.241 7.932-43.002 12.54-43.103 12.566-8.706 1.672-27.815 7.753-38.703 29.528-2.721 5.444-4.881 12.188-6.559 19.863-2.088 9.551-3.03 19.32-3.03 29.097v49.621h278.379c11.254 0 20.378-9.123 20.378-20.377v-29.244c.001-9.776-.941-19.545-3.03-29.097z" fill="#ffdd40"/><path d="m266.049 317.729c0-49 17.339-37.5 57.339-57.292 4.585-2.269 8.629-4.934 12.205-7.87-11.991-7.823-21.92-18.174-29.141-30.533-.613-1.049-1.217-2.111-1.813-3.188-19.241 7.932-43.002 12.54-43.103 12.566-8.706 1.672-27.815 7.753-38.703 29.528-2.721 5.444-4.881 12.188-6.559 19.863-2.088 9.551-3.03 19.32-3.03 29.097v49.621h38.79c8.221-10.368 14.015-25.466 14.015-41.792z" fill="#ffb332"/><path d="m244.658 162.408c.174 9.56-.77 19.35-1.792 25.878-4.824 21.261-11.788 39.771-20.697 55.017-4.04 6.913-9.079 13.196-14.979 18.676l-.756.702v4.762c0 4.936 1.918 9.5 5.183 13.703 18.28-1.105 33.821-4.808 46.07-9.026 14.745-5.078 21.2-22.558 13.144-35.911-18.969-31.443-16.143-73.802-16.143-73.802h-10.03z" fill="#2a428c"/><path d="m270.832 236.21c-1.78-2.95-3.367-5.996-4.784-9.094-22.078 12.807-30.9-5.339-30.9-5.339s-.57-.836-1.616-2.392c-3.336 8.671-7.127 16.668-11.363 23.918-4.04 6.913-9.079 13.196-14.979 18.676l-.756.702v4.762c0 4.936 1.918 9.5 5.183 13.703 18.28-1.105 33.821-4.808 46.07-9.026 14.747-5.078 21.201-22.557 13.145-35.91z" fill="#1c2e7a"/><path d="m85.014 272.12c12.249 4.218 27.79 7.921 46.07 9.026 3.266-4.203 5.184-8.768 5.184-13.703v-5.848l-.723-.698c-5.4-5.212-10.053-11.132-13.829-17.593-8.913-15.256-15.875-33.76-20.692-54.996-1.055-6.157-2.009-16.109-1.797-25.899h-11.214s2.827 42.359-16.143 73.802c-8.056 13.352-1.601 30.831 13.144 35.909z" fill="#1c2e7a"/><g><path d="m214.775 40.338c-11.365-5.864-25.497-9.933-42.833-9.933-17.335 0-31.468 4.069-42.833 9.933-24.879 12.835-40.211 38.323-40.211 65.824v33.925l.001.011c3.924-.092 8.265 1.194 11.061 3.058 1.031-3.372 2.441-6.291 4.347-8.44 1.716-1.934 2.793-4.327 2.869-6.886.292-9.794 2.862-32.938 20.109-41.798 4.805-2.468 10.675-.585 13.375 4.094 10.389 18.011 34.622 41.746 88.511 31.631 3.822-.717 7.413 2.125 7.533 6.012.001.02.001.04.002.061.076 2.559 1.153 4.952 2.87 6.886 1.906 2.148 3.316 5.068 4.347 8.44 2.796-1.864 7.137-3.15 11.061-3.058l.001-.011v-33.925c.001-27.501-15.33-52.988-40.21-65.824z" fill="#2a428c"/></g><path d="m170.906 115.71c-26.71-51.026 23.473-82.817 23.473-82.817-6.799-1.573-14.256-2.487-22.436-2.487-17.335 0-31.468 4.069-42.833 9.933-24.879 12.835-40.211 38.323-40.211 65.824v33.925l.001.011c3.924-.092 8.265 1.194 11.061 3.058 1.031-3.372 2.441-6.291 4.347-8.44 1.716-1.934 2.793-4.327 2.869-6.886.292-9.794 2.862-32.938 20.109-41.798 4.805-2.468 10.676-.585 13.375 4.094 5.616 9.737 15.292 21.137 31.499 27.967-.42-.795-.838-1.59-1.254-2.384z" fill="#1c2e7a"/><path d="m99.278 188.639s-4.504-28.506.684-45.482c-4.707-3.138-13.801-4.67-17.892-.671-8.374 8.187-2.239 20.55.698 28.359.902 2.398 1.483 4.823 1.746 7.253.572 5.279 3.434 13.006 15.302 12.824-.179-.761-.363-1.51-.538-2.283z" fill="#fd995b"/><path d="m261.815 142.486c-4.09-3.999-13.185-2.467-17.892.671 5.188 16.977.684 45.482.684 45.482-.175.773-.359 1.522-.538 2.283 11.869.182 14.731-7.545 15.303-12.824.263-2.43.845-4.855 1.746-7.253 2.935-7.81 9.071-20.172.697-28.359z" fill="#fcad6d"/><g><path d="m396.962 13.356c-8.99-4.638-20.168-7.857-33.88-7.857s-24.891 3.218-33.88 7.857c-19.679 10.153-31.806 30.313-31.806 52.067v26.834l.001.009c3.104-.073 6.538.944 8.749 2.419.815-2.667 1.931-4.976 3.439-6.676 1.357-1.53 2.209-3.422 2.269-5.447.231-7.747 2.264-26.054 15.906-33.062 3.801-1.952 8.444-.463 10.579 3.238 8.217 14.247 27.385 33.021 70.012 25.02 3.023-.567 5.864 1.681 5.958 4.755.001.016.001.032.002.048.06 2.024.912 3.917 2.27 5.447 1.508 1.699 2.623 4.009 3.438 6.676 2.212-1.474 5.646-2.491 8.749-2.419l.001-.009v-26.834c-.001-21.753-12.127-41.914-31.807-52.066z" fill="#2a428c"/></g><path d="m362.262 72.974c-21.127-40.361 18.567-65.508 18.567-65.508-5.378-1.244-11.277-1.967-17.746-1.967-13.712 0-24.891 3.218-33.88 7.857-19.679 10.153-31.806 30.313-31.806 52.067v26.834l.001.009c3.104-.073 6.538.944 8.749 2.419.815-2.667 1.931-4.976 3.439-6.676 1.357-1.53 2.209-3.422 2.27-5.446.231-7.747 2.264-26.054 15.906-33.062 3.801-1.952 8.444-.463 10.579 3.238 4.442 7.702 12.096 16.719 24.915 22.122-.335-.63-.666-1.259-.994-1.887z" fill="#1c2e7a"/><path d="m305.605 130.661s-3.563-22.548.541-35.976c-3.723-2.482-10.917-3.694-14.152-.531-6.624 6.476-1.771 16.255.552 22.432.713 1.897 1.173 3.815 1.381 5.737.452 4.176 2.716 10.288 12.104 10.144-.142-.603-.288-1.195-.426-1.806z" fill="#fd995b"/><path d="m434.17 94.154c-3.235-3.163-10.429-1.951-14.152.531 4.104 13.428.541 35.976.541 35.976-.139.611-.284 1.204-.426 1.805 9.388.144 11.652-5.968 12.104-10.144.208-1.922.668-3.84 1.381-5.737 2.323-6.177 7.176-15.956.552-22.431z" fill="#fcad6d"/><path d="m414.778 82.548c-.03-.985-.092-2.176-.207-3.508-.346-.5-.759-.957-1.244-1.347-1.471-1.183-3.384-1.66-5.236-1.313-40.646 7.628-59.702-9.027-68.538-24.342-1.613-2.798-4.409-4.483-7.371-4.758-2.508.696-4.813 1.737-6.905 3.131-11.91 7.931-13.683 25.117-13.892 32.138-.055 1.845-.799 3.626-2.152 5.15-7.458 8.404-5.825 32.957-4.085 43.065 3.853 17.008 9.435 31.838 16.588 44.08 7.261 12.427 18.258 22.092 31.802 27.952 6.066 2.624 13.021 2.624 19.086 0 13.543-5.859 24.54-15.525 31.802-27.952 7.152-12.238 12.733-27.069 16.595-44.11 1.671-10.626 3.451-34.535-4.092-43.035-1.352-1.525-2.096-3.307-2.151-5.151z" fill="#f9ba8f"/><path d="m371.583 174.844c-7.153-12.242-12.734-27.072-16.588-44.08-1.74-10.109-3.373-34.661 4.085-43.065 1.354-1.524 2.098-3.305 2.152-5.15.069-2.316.311-5.742 1.029-9.574-11.157-5.117-18.242-13.196-22.708-20.937-1.613-2.798-4.409-4.483-7.371-4.758-2.508.696-4.812 1.737-6.905 3.131-11.91 7.931-13.683 25.117-13.892 32.138-.055 1.845-.799 3.626-2.152 5.15-7.458 8.404-5.825 32.957-4.085 43.065 3.853 17.008 9.435 31.838 16.588 44.08 7.262 12.427 18.259 22.092 31.802 27.952 6.066 2.624 13.022 2.624 19.086 0 5.592-2.419 10.741-5.497 15.38-9.14-6.597-5.181-12.157-11.516-16.421-18.812z" fill="#fcad6d"/><path d="m96.647 304.327c13.229 22.64 33.263 40.248 57.936 50.922 11.051 4.78 23.722 4.78 34.771 0 24.673-10.675 44.707-28.283 57.936-50.922.505-.863.998-1.746 1.493-2.625-20.744-7.999-39.985-19.377-39.985-34.249 0-5.204 0-3.645 0-7.015-9.074 8.113-24.635 18.448-37.451 18.758-12.816-.31-28.378-10.646-37.452-18.758 0 9.674 2.568 21.32-27.841 36.084-3.511 1.705-7.261 3.308-11.109 4.812.564 1.003 1.127 2.008 1.702 2.993z" fill="#fcad6d"/><path d="m171.346 279.196c-12.816-.31-28.378-10.646-37.452-18.758 0 9.675 2.568 21.32-27.841 36.084-3.511 1.705-7.261 3.308-11.109 4.812.564 1.003 1.127 2.008 1.702 2.993 9.215 15.771 21.74 29.09 36.827 39.335 26.601-12.94 37.031-44.71 41.043-64.739-1.071.15-2.13.248-3.17.273z" fill="#fd995b"/><path d="m244.28 391.408c0-32.519 16.34-61.28 41.228-78.549-10.634-2.572-25.827-6.696-39.892-12.409-.688 1.235-1.381 2.46-2.086 3.667-12.574 21.519-31.616 38.255-55.067 48.401-10.502 4.543-22.546 4.543-33.05 0-23.452-10.146-42.494-26.883-55.068-48.401-.774-1.326-1.538-2.669-2.291-4.029-24.322 10.026-54.358 15.851-54.483 15.884-7.455 1.431-20.939 5.43-33.143 16.407 18.99 62.93 62.602 115.171 119.642 145.528h169.21c-32.465-15.285-55-48.304-55-86.499z" fill="#fc90ce"/><path d="m136.339 342.157c-14.78-9.822-27.035-22.709-35.994-38.04-.774-1.326-1.538-2.669-2.291-4.029-24.322 10.026-54.358 15.851-54.483 15.884-7.455 1.431-20.939 5.43-33.143 16.407 9.215 30.539 24.243 58.549 43.777 82.774 4.816-45.492 27.506-55.762 70.351-68.069 4.265-1.226 8.179-2.903 11.783-4.927z" fill="#f964b2"/><path d="m237.299 127.813c-.038-1.246-.116-2.751-.261-4.435-.438-.632-.96-1.21-1.573-1.703-1.859-1.496-4.277-2.099-6.62-1.66-51.386 9.644-75.478-11.412-86.648-30.774-2.04-3.537-5.573-5.667-9.318-6.015-3.171.879-6.084 2.197-8.729 3.958-15.057 10.026-17.299 31.754-17.563 40.63-.069 2.333-1.01 4.584-2.721 6.511-9.429 10.625-7.364 41.665-5.164 54.445 4.872 21.502 11.928 40.251 20.971 55.728 9.18 15.711 23.083 27.93 40.205 35.338 7.669 3.317 16.462 3.317 24.13 0 17.122-7.408 31.025-19.627 40.205-35.338 9.042-15.472 16.098-34.222 20.98-55.766 2.113-13.434 4.363-43.66-5.173-54.407-1.711-1.928-2.652-4.18-2.721-6.512z" fill="#f9ba8f"/><path d="m182.691 244.497c-9.043-15.476-16.099-34.225-20.971-55.727-2.2-12.779-4.265-43.82 5.164-54.445 1.711-1.927 2.652-4.178 2.721-6.511.087-2.928.394-7.259 1.301-12.103-14.106-6.469-23.062-16.682-28.708-26.469-2.04-3.537-5.573-5.667-9.318-6.015-3.171.88-6.084 2.197-8.729 3.958-15.057 10.026-17.299 31.754-17.563 40.63-.069 2.333-1.01 4.584-2.721 6.511-9.429 10.624-7.364 41.665-5.164 54.445 4.871 21.502 11.928 40.251 20.971 55.727 9.18 15.711 23.083 27.93 40.205 35.338 7.669 3.317 16.462 3.317 24.13 0 7.069-3.058 13.579-6.949 19.444-11.555-8.343-6.551-15.372-14.56-20.762-23.784z" fill="#fcad6d"/><path d="m461.56 294.713c-5.658-3.58-13.039.448-13.039 7.143v57.667h25.342c0-14.721 0-34.107 0-45.101 0-9.503-6.092-15.779-12.303-19.709z" fill="#ffb332"/><ellipse cx="339.84" cy="391.408" fill="#73c3f9" rx="98.032" ry="98.032" transform="matrix(.707 -.707 .707 .707 -177.23 354.944)"/><path d="m398.784 469.742c-48.08-8.402-44.546-48.407-44.546-48.407l-19.247-73.413c-32.423-13.774-16.531-52.168-16.516-52.204-43.866 9.751-76.666 48.887-76.666 95.69 0 54.141 43.89 98.032 98.032 98.032 22.125 0 42.537-7.333 58.943-19.698z" fill="#4fabf7"/><path d="m369.768 377.011h-13.62c-1.055 0-1.91-.855-1.91-1.91v-13.62c0-7.951-6.446-14.397-14.397-14.397-7.952 0-14.397 6.446-14.397 14.397v13.62c0 1.055-.855 1.91-1.91 1.91h-13.62c-7.951 0-14.397 6.446-14.397 14.397 0 7.951 6.446 14.397 14.397 14.397h13.62c1.055 0 1.91.855 1.91 1.91v13.62c0 7.951 6.446 14.397 14.397 14.397 7.951 0 14.397-6.446 14.397-14.397v-13.62c0-1.055.855-1.91 1.91-1.91h13.62c7.951 0 14.397-6.446 14.397-14.397 0-7.951-6.446-14.397-14.397-14.397z" fill="#e9efff"/><path d="m343.636 391.408c0-7.952 6.446-14.397 14.397-14.397h-1.886c-1.055 0-1.91-.855-1.91-1.91v-13.621c0-7.951-6.446-14.397-14.397-14.397-7.952 0-14.397 6.446-14.397 14.397v13.621c0 1.055-.855 1.91-1.91 1.91h-13.62c-7.951 0-14.397 6.446-14.397 14.397 0 7.952 6.446 14.397 14.397 14.397h13.62c1.055 0 1.91.855 1.91 1.91v13.621c0 7.951 6.446 14.397 14.397 14.397 7.951 0 14.397-6.446 14.397-14.397v-13.621c0-1.055.855-1.91 1.91-1.91h1.886c-7.951 0-14.397-6.445-14.397-14.397z" fill="#bec8f7"/></g></svg>